<svg xmlns="http://www.w3.org/2000/svg" version="1.1" xmlns:xlink="http://www.w3.org/1999/xlink" xmlns:svgjs="http://svgjs.com/svgjs" width="512" height="512"><svg width="512" height="512" viewBox="0 0 135.46667 135.46667" version="1.1" id="SvgjsSvg1004" inkscape:version="1.1 (ce6663b3b7, 2021-05-25)" sodipodi:docname="logo-vue.svg" xmlns:inkscape="http://www.inkscape.org/namespaces/inkscape" xmlns:sodipodi="http://sodipodi.sourceforge.net/DTD/sodipodi-0.dtd" xmlns="http://www.w3.org/2000/svg" xmlns:svg="http://www.w3.org/2000/svg">
  <sodipodi:namedview id="SvgjsSodipodi:namedview1003" pagecolor="#ffffff" bordercolor="#666666" borderopacity="1.0" inkscape:pageshadow="2" inkscape:pageopacity="0.0" inkscape:pagecheckerboard="0" inkscape:document-units="px" showgrid="false" height="513px" inkscape:zoom="1.7050781" inkscape:cx="68.032073" inkscape:cy="255.70676" inkscape:window-width="2560" inkscape:window-height="1355" inkscape:window-x="0" inkscape:window-y="25" inkscape:window-maximized="1" inkscape:current-layer="layer1"></sodipodi:namedview>
  <defs id="SvgjsDefs1002"></defs>
  <g inkscape:label="Layer 1" inkscape:groupmode="layer" id="SvgjsG1001">
    <path id="SvgjsPath1000" style="fill:#41b883;fill-opacity:1;stroke:none;stroke-width:0;stroke-miterlimit:4;stroke-dasharray:none;stroke-opacity:1" d="M 71 0 C 43.3 -4.7369516e-15 21 22.3 21 50 L 21 462 C 21 489.7 43.3 512 71 512 L 441 512 C 468.7 512 491 489.7 491 462 L 491 50 C 491 22.3 468.7 4.7369516e-14 441 0 L 71 0 z M 96 50 L 416 50 C 429.85 50 441 61.15 441 75 L 441 157 C 441 170.85 429.85 182 416 182 L 96 182 C 82.15 182 71 170.85 71 157 L 71 75 C 71 61.15 82.15 50 96 50 z M 96 232 L 136 232 C 149.85 232 161 243.15 161 257 L 161 297 C 161 310.85 149.85 322 136 322 L 96 322 C 82.15 322 71 310.85 71 297 L 71 257 C 71 243.15 82.15 232 96 232 z M 236 232 L 276 232 C 289.85 232 301 243.15 301 257 L 301 297 C 301 310.85 289.85 322 276 322 L 236 322 C 222.15 322 211 310.85 211 297 L 211 257 C 211 243.15 222.15 232 236 232 z M 376 232 L 416 232 C 429.85 232 441 243.15 441 257 L 441 437 C 441 450.85 429.85 462 416 462 L 376 462 C 362.15 462 351 450.85 351 437 L 351 257 C 351 243.15 362.15 232 376 232 z M 96 372 L 136 372 C 149.85 372 161 383.15 161 397 L 161 437 C 161 450.85 149.85 462 136 462 L 96 462 C 82.15 462 71 450.85 71 437 L 71 397 C 71 383.15 82.15 372 96 372 z M 236 372 L 276 372 C 289.85 372 301 383.15 301 397 L 301 437 C 301 450.85 289.85 462 276 462 L 236 462 C 222.15 462 211 450.85 211 437 L 211 397 C 211 383.15 222.15 372 236 372 z " transform="scale(0.26458334)"></path>
  </g>
</svg><style>@media (prefers-color-scheme: light) { :root { filter: none; } }
</style></svg>